<svg width="61" height="61" viewBox="0 0 61 61" fill="none" xmlns="http://www.w3.org/2000/svg">
<path d="M27.9583 10.1667H10.1666C8.8184 10.1667 7.52544 10.7022 6.57213 11.6555C5.61882 12.6088 5.08325 13.9018 5.08325 15.25V50.8333C5.08325 52.1815 5.61882 53.4745 6.57213 54.4278C7.52544 55.3811 8.8184 55.9167 10.1666 55.9167H45.7499C47.0981 55.9167 48.3911 55.3811 49.3444 54.4278C50.2977 53.4745 50.8333 52.1815 50.8333 50.8333V33.0417" stroke="#82D273" stroke-width="2" stroke-linecap="round" stroke-linejoin="round"/>
<path d="M47.0208 6.35415C48.0319 5.34301 49.4033 4.77496 50.8333 4.77496C52.2632 4.77496 53.6346 5.34301 54.6457 6.35415C55.6569 7.36529 56.2249 8.73669 56.2249 10.1667C56.2249 11.5966 55.6569 12.968 54.6457 13.9792L30.4999 38.125L20.3333 40.6667L22.8749 30.5L47.0208 6.35415Z" stroke="#82D273" stroke-width="2" stroke-linecap="round" stroke-linejoin="round"/>
</svg>
